<svg viewBox="115 231 708 719" width="708" height="719" version="1.1" baseProfile="full" xmlns="http://www.w3.org/2000/svg" class="js-draw--autoresize"><style id="js-draw-style-sheet">path{stroke-linecap:round;stroke-linejoin:round;}text{white-space:pre;}</style><path d="M823,950l0-719l-708,0l0,719l708,0" fill="#ffffff" class="js-draw-image-background"></path><path d="M385,375q0-140 -1-138q-32,63 -160,327q-48,98 -94,223q-11,30 -11,35q0,112 494-264q-20,23 -61,64q-74,74 -178,218q-48,66 -66,98q-5,8 5,8q123,0 402-103q33-12 95-37q2-1 9-5" fill="none" stroke="#108b0d" stroke-width="8"></path></svg>