<svg viewBox="165 0 515 851" width="515" height="851" version="1.1" baseProfile="full" xmlns="http://www.w3.org/2000/svg" class="js-draw--autoresize"><style id="js-draw-style-sheet">path{stroke-linecap:round;stroke-linejoin:round;}text{white-space:pre;}</style><path d="M680,851L680,0L165,0L165,851L680,851" fill="#ffffff" class="js-draw-image-background"></path><path d="M355,440Q328,469 293,528Q270,567 270,643Q270,676 274,690Q279,707 375,704Q450,702 510,593Q544,532 205,419Q169,407 197,609Q207,670 215,719Q223,764 305,818Q349,847 444,826Q478,819 540,681Q581,590 570,322Q568,272 519,211Q493,178 463,208Q409,262 393,347Q385,388 405,399Q433,414 515,402Q578,393 638,272Q676,196 646,110Q632,71 538,28Q485,4 396,4Q373,4 287,46Q261,59 228,168Q222,188 234,284Q235,292 255,317" fill="none" stroke="#dd9534" stroke-width="8"></path></svg>