<svg viewBox="88.5 293.5 568 560" width="568" height="560" version="1.1" baseProfile="full" xmlns="http://www.w3.org/2000/svg" class="js-draw--autoresize"><style id="js-draw-style-sheet">path{stroke-linecap:round;stroke-linejoin:round;}text{white-space:pre;}</style><path d="M656.5,853.5l0-560l-568,0l0,560l568,0" fill="#ffffff" class="js-draw-image-background"></path><path d="M514,334q-18-16 -30-20q-49-16 -119,37q-23,17 -38,116q-4,26 -4,136q0,20 73-22q60-34 145-138q32-38 29-41q-22-22 -86,104q-47,93 -47,225q0,31 44,40" fill="none" stroke="#caacc0" stroke-width="9"></path><path d="M508,490q-62-6 -126-23q-34-9 -166-54q-65-22 -106-22q-10,0 177,137q90,59 165,106q43,27 47,28q-17-8 -49-21q-154-86 -276-163q-11-7 -71-37q-10-5 102,90q186,143 341,256q67,49 106,62" fill="none" stroke="#caacc0" stroke-width="9"></path></svg>