<svg viewBox="-106 23 1016 1292" width="1016" height="1292" version="1.1" baseProfile="full" xmlns="http://www.w3.org/2000/svg" class="js-draw--autoresize"><style id="js-draw-style-sheet">path{stroke-linecap:round;stroke-linejoin:round;}text{white-space:pre;}</style><path d="M910,1315l0-1292l-1016,0l0,1292l1016,0" fill="#ffffff" class="js-draw-image-background"></path><path d="M407,320q-102,0 -133,12q-100,39 -100,296q0,137 3,153q6,32 69,15q60-17 188-262q40-77 45-188q1-14 -39,16q-56,42 -56,276q0,134 100,96q37-14 109-187q20-48 20-195q0-45 -38-32q-6,7 -9,14" fill="none" stroke="#0c0b1e" stroke-width="16"></path><path d="M562,362q-174,0 -316,0q-9,0 218,66q80,19 146,34q0,0 -90,16q-42,7 -42,21q0,4 71,39q116,56 211,102q17,8 -146,50q-75,19 -137,35q51,29 146,56q79,22 79,29q0,3 -132,30q-14,3 -67,17" fill="none" stroke="#0c0b1e" stroke-width="16"></path><path d="M361,444q8-106 45-401q1-15 -3-11q-3,3 -45,94q-128,273 -193,477q-17,51 30,30q22-10 328-252q133-105 131-82q-1,4 -105,180q-116,197 -113,199q1,0 26-26q189-200 354-339q6-5 3,14q-2,13 -42,125q-69,194 -125,353" fill="none" stroke="#8c9152" stroke-width="10"></path><path d="M-106,129l0,16q349,0 776,0l0-16q-427,0 -776,0 M387,231l6-16q-198-77 -319-80q-117-3 -180-6l0,16l0-16q63,19 180,22q117,3 313,80 M406,240l12,12q12-19 -25-37l-6,16q28,7 19,9 M173,462l16,0q3-74 88-121q65-37 140-88l1-1l-12-12q-72,50 -137,87q-90,52 -96,135 M203,521l14-10q-29-40 -28-49l-16,0q0,15 30,59 M552,562l0-16q-62,1 -78,0q-242-9 -257-35l-14,10q25,31 271,41q16,1 78,0 M328,692l12,10q58-67 132-99q56-23 85-42l-5-15l0,16q-32,4 -86,27q-78,33 -138,103 M436,739l2-16q-114-12 -98-21l-12-10q-17,28 108,47 M687,762l0-16q-69,0 -249-23l-2,16q181,23 251,23" fill="#38adc5"></path><path d="M378,651q0-445 0-442q1,5 30,29q101,79 263,165q-56,8 -156,1q-28-2 -100,27q-127,52 -174,133q-44,74 26,108q22,11 67-9q32-15 131-162q27-40 -16-178q-25-80 -94-70q-37,5 -77,151q-46,166 19,211q24,16 41-36q15-47 -25-85q-12-12 -28,44q-10,37 43,114q48,71 130,20q33-21 121-153" fill="none" stroke="#8c9152" stroke-width="10"></path><path d="M579,519q-185,0 -211,1q-110,2 -160,98q-52,100 0,131q34,21 150-96q75-75 121-253q26-99 -30-248q-11-28 -45-7q-43,27 -59,196q-13,134 75,217q31,29 102-3q52-23 83-146q21-79 -48-156q-56-61 -114-20q-92,64 -124,299q-7,56 42,94q22,17 62-27q73-81 14-141q-31-31 -85,14q-35,28 -37,134q-2,100 81,126q33,10 69-47q26-42 -3-111q-35-81 -121-91q-41-5 -52,53q-9,45 58,90q38,26 83-24q19-21 -13-74q-35-57 -118-55q-64,2 -115,91q-32,56 25,107q25,22 148-38q64-32 132-182q36-80 14-171q-9-37 -69-59q-40-14 -97,141q-34,91 43,251q26,56 115,2q61-37 84-144q14-68 -54-156q-21-29 -73-37q-64-11 -105,56q-87,140 -41,329q14,59 92,111q137,54 254,86" fill="none" stroke="#8c9152" stroke-width="10"></path><path d="M420,322q-24-24 -52-33q-94-28 -143-3q-58,29 -137,154q-22,36 -9,105q8,42 79,68q98,35 163,1q111-59 78-197q-23-98 -108-163q-65-49 -125-38q-71,14 -119,100q-66,115 -39,254q21,111 119,150q118,47 201-33q83-80 118-179q19-54 19-95q1-78 -67-98q-76-22 -174,28q-44,23 -79,59q-84,103 -149,191" fill="none" stroke="#8c9152" stroke-width="10"></path><path d="M399,741q2-274 -3-321q-5-52 -140-33q-101,14 -184,241q-20,55 -12,171q1,17 46,70q73,87 299,87q176,0 235-265q40-182 -90-287q-35-29 -136-19q-25,2 -127,146q-24,34 -55,200q-32,173 64,241q36,25 74-11q92-88 92-404q0-146 -142-173q-103-19 -210,235q-23,55 -23,204" fill="none" stroke="#0c0b1e" stroke-width="16"></path><path d="M484,690q-20-34 -48-54q-131-96 -210-96q-12,0 289-45q215-30 390-54q-45-7 -129-12q-192-18 -350-36" fill="none" stroke="#8c9152" stroke-width="10"></path><path d="M557,103l-16-2q-8,49 -20,260l16,0q12-209 20-258 M546,105l14-8q-11-10 -19,4l16,2q-6,0 -11,2 M656,337l16-4q-6-23 -16-43q-43-86 -96-193l-14,8q53,106 96,193q9,18 14,39 M481,349l2,16q187-15 189-32l-16,4q6-1 -175,12 M118,318l-6,16q145,48 371,31l-2-16q-222,17 -363-31 M123,312l-14-10q-12,22 3,32l6-16q-5,3 5-6 M283,180l-8-14q-131,87 -166,136l14,10q32-46 160-132 M302,239l16-4q-25-75 -43-69l8,14q0-7 19,59 M366,440l16-6q-32-95 -64-199l-16,4q32,104 64,201 M323,429l-2,16q61,9 61-11l-16,6q7,0 -43-11 M-26,427l-14,8q17,22 154,14q94-6 208-4l-1,0l2-16q-116-2 -211,4q-131,8 -138-6 M123,301l-8-14q-178,106 -155,148l14-8q-23-26 149-126 M429,123l-8-14q-18,9 -23,12q-227,133 -283,166l8,14q57-33 283-166q4-2 23-12 M455,444l16-2q-36-331 -50-333l8,14q-8-4 26,321 M466,488l0,16q10-6 5-62l-16,2q6,50 11,44 M107,429l-4,16q224,59 363,59l0-16q-136,0 -359-59 M99,412l-12-10q-22,29 16,43l4-16q-26-3 -8-17 M602,174l-6-16q-69,25 -153,56q-299,126 -356,188l12,10q53-58 350-183q84-31 153-55 M577,241l16,4q19-85 3-87l6,16q-4-7 -25,67 M483,638l16,4q7-36 16-80q35-151 78-317l-16-4q-42,166 -78,317q-9,44 -16,80 M393,605l-6,16q103,37 112,21l-16-4q5,4 -90-33 M210,537l-6,14q3,2 183,70l6-16q-179-67 -183-68 M203,542l-2-16q-19,9 3,25l6-14q-12,0 -7,5 M687,351l-6-16q-259,94 -308,118q-77,37 -174,73l2,0l2,16q100-37 178-75q47-23 306-116 M697,345l16,2q-2-19 -32-12l6,16q16-9 10-6 M616,620l16,4q8-32 19-71q30-91 62-205l0-1l-16-2q-31,112 -62,203q-11,40 -19,72 M521,593l-4,16q107,23 115,15l-16-4q7-4 -95-27 M454,584l-16,0q0,1 79,25l4-16q-67-8 -67-9" fill="#38adc5"></path><path d="M450,375l-14,6q12,26 8,182l16,0q4-158 -10-188 M347,359l6,16q69-30 83,6l14-6q-24-45 -103-16 M245,509l14,8q68-133 94-142l-6-16q-32,14 -102,150 M243,677l8-14q-53-30 8-146l-14-8q-63,126 -2,168 M436,647l-10-14q-106,75 -175,30l-8,14q78,47 193-30 M486,475l-16,0q1,130 -44,158l10,14q49-36 50-172 M363,388l0,16q110-9 107,71l16,0q-3-92 -123-87 M180,640l14,6q108-240 169-242l0-16q-72,6 -183,252 M105,1141l16-2q-32-259 73-493l-14-6q-107,238 -75,501 M245,1303l8-14q-124-76 -132-150l-16,2q11,82 140,162 M390,1315l0-16q-122,0 -137-10l-8,14q20,12 145,12" fill="#38adc5"></path><path d="M402,657q0-19 0-81q0-154 -1-175q-2-161 -36-110q-8,12 -25,58q-68,182 -45,283q28,132 152,146q67,8 94-75q12-37 -13-83q-40-75 -107-47q-42,18 -57,123" fill="none" stroke="#8c9152" stroke-width="10"></path><path d="M322,685q-19-25 -57-60q-3-3 -50-38q-3-2 116-2q131,0 191-15q7-2 33-164q27-168 2-193" fill="none" stroke="#0c0b1e" stroke-width="16"></path></svg>